# xmcd CD database file
#
# Track frame offsets:
#	150
#	38140
#	78467
#	115635
#	158849
#	188064
#
# Disc length: 3098 seconds
#
# Revision: 0
# Processed by: cddbd v1.5.1PL0 Copyright (c) Steve Scherf et al.
# Submitted via: CDex 1.50
#
DISCID=3e0c1806
DTITLE=Stephen Rhodes - Venus
DYEAR=1995
DGENRE=New Age
TTITLE0=The Birth of Venus
TTITLE1=The Miracle of Love
TTITLE2=Those Angel Eyes
TTITLE3=Crystal Waters
TTITLE4=The Magic of Romance
TTITLE5=Surrender to the Divine
EXTD=YEAR: 1995
EXTT0=
EXTT1=
EXTT2=
EXTT3=
EXTT4=
EXTT5=
PLAYORDER=
